<svg xmlns="http://www.w3.org/2000/svg" version="1.1" xmlns:xlink="http://www.w3.org/1999/xlink" xmlns:svgjs="http://svgjs.dev/svgjs" width="2000" height="1500" viewBox="0 0 2000 1500"><rect width="2000" height="1500" fill="#6615a7"></rect><g transform="matrix(0.75,0,0,0.75,250.6844818787772,168.09658251578708)"><svg viewBox="0 0 318 247" data-background-color="#6615a7" preserveAspectRatio="xMidYMid meet" height="1553" width="2000" xmlns="http://www.w3.org/2000/svg" xmlns:xlink="http://www.w3.org/1999/xlink"><g id="tight-bounds" transform="matrix(1,0,0,1,-0.14510864341514207,-0.09999495050496421)"><svg viewBox="0 0 318.29019607843134 247.2" height="247.2" width="318.29019607843134"><g><svg viewBox="0 0 318.29019607843134 247.2" height="247.2" width="318.29019607843134"><g><svg viewBox="0 0 318.29019607843134 247.2" height="247.2" width="318.29019607843134"><g id="textblocktransform"><svg viewBox="0 0 318.29019607843134 247.2" height="247.2" width="318.29019607843134" id="textblock"><g><svg viewBox="0 0 318.29019607843134 247.2" height="247.2" width="318.29019607843134"><g transform="matrix(1,0,0,1,0,0)"><svg width="318.29019607843134" viewBox="5.760000228881836 -37.349998474121094 48.089996337890625 37.349998474121094" height="247.2" data-palette-color="#ffffff"><path d="M5.76 0L5.76-37.35 26.93-37.35 26.93-33.74 9.91-33.74 9.91-20.85 23.63-20.85 23.63-17.26 9.91-17.26 9.91-3.59 27.59-3.59 27.59 0 5.76 0ZM34.91 0L34.91-37.35 39.06-37.35 39.06-3.59 53.85-3.59 53.85 0 34.91 0Z" opacity="1" transform="matrix(1,0,0,1,0,0)" fill="#ffffff" class="wordmark-text-0" data-fill-palette-color="primary" id="text-0"></path></svg></g></svg></g></svg></g></svg></g><g></g></svg></g><defs></defs></svg><rect width="318.29019607843134" height="247.2" fill="none" stroke="none" visibility="hidden"></rect></g></svg></g></svg>